HIERARCHY
ROOT Hips
{
	OFFSET 0.00 0.00 0.00
	CHANNELS 6 Xposition Yposition Zposition Xrotation Yrotation Zrotation
	JOINT Spine
	{
		OFFSET 0.00000 3.24121 0.00000
		CHANNELS 3 Xrotation Yrotation Zrotation
		JOINT Head
		{
			OFFSET 0.00000 18.38296 0.00000
			CHANNELS 3 Xrotation Yrotation Zrotation
			End Site
			{
				OFFSET 0.00000 4.52755 0.00000
			}
		}
		JOINT LeftShoulder
		{
			OFFSET 0.00000 12.82826 0.00000
			CHANNELS 3 Xrotation Yrotation Zrotation
			JOINT LeftArm
			{
				OFFSET 7.74805 0.00000 0.00000
				CHANNELS 3 Xrotation Yrotation Zrotation
				JOINT LeftForeArm
				{
					OFFSET 10.63561 0.00000 0.00000
					CHANNELS 3 Yrotation Zrotation Xrotation
					JOINT LeftHand
					{
						OFFSET 8.34675 0.00000 0.00000
						CHANNELS 3 Xrotation Yrotation Zrotation
						JOINT LeftHandThumb1
						{
							OFFSET 0.00000 0.00000 0.00000
							CHANNELS 3 Xrotation Zrotation Yrotation
							End Site
							{
								OFFSET 0.00000 0.00000 3.93700
							}
						}
						End Site
						{
							OFFSET 3.93700 0.00000 0.00000
						}
					}
				}
			}
		}
		JOINT RightShoulder
		{
			OFFSET 0.00000 12.82826 0.00000
			CHANNELS 3 Xrotation Yrotation Zrotation
			JOINT RightArm
			{
				OFFSET -7.74805 0.00000 0.00000
				CHANNELS 3 Xrotation Yrotation Zrotation
				JOINT RightForeArm
				{
					OFFSET -10.63561 0.00000 0.00000
					CHANNELS 3 Yrotation Zrotation Xrotation
					JOINT RightHand
					{
						OFFSET -8.34675 0.00000 0.00000
						CHANNELS 3 Xrotation Yrotation Zrotation
						JOINT RightHandThumb1
						{
							OFFSET 0.00000 0.00000 0.00000
							CHANNELS 3 Xrotation Zrotation Yrotation
							End Site
							{
								OFFSET 0.00000 0.00000 3.93700
							}
						}
						End Site
						{
							OFFSET -3.93700 0.00000 0.00000
						}
					}
				}
			}
		}
	}
	JOINT LeftUpLeg
	{
		OFFSET 3.43402 0.00000 0.00000
		CHANNELS 3 Xrotation Yrotation Zrotation
		JOINT LeftLeg
		{
			OFFSET 0.00000 -15.71302 0.00000
			CHANNELS 3 Xrotation Yrotation Zrotation
			JOINT LeftFoot
			{
				OFFSET 0.00000 -14.43512 0.00000
				CHANNELS 3 Xrotation Yrotation Zrotation
				JOINT LeftToeBase
				{
					OFFSET 0.00000 -1.27828 4.77061
					CHANNELS 3 Xrotation Yrotation Zrotation
					End Site
					{
						OFFSET 0.00000 0.00000 2.95275
					}
				}
			}
		}
	}
	JOINT RightUpLeg
	{
		OFFSET -3.43402 0.00000 0.00000
		CHANNELS 3 Xrotation Yrotation Zrotation
		JOINT RightLeg
		{
			OFFSET 0.00000 -15.71302 0.00000
			CHANNELS 3 Xrotation Yrotation Zrotation
			JOINT RightFoot
			{
				OFFSET 0.00000 -14.43512 0.00000
				CHANNELS 3 Xrotation Yrotation Zrotation
				JOINT RightToeBase
				{
					OFFSET 0.00000 -1.27828 4.77061
					CHANNELS 3 Xrotation Yrotation Zrotation
					End Site
					{
						OFFSET 0.00000 0.00000 2.95275
					}
				}
			}
		}
	}
}
MOTION
Frames: 19
Frame Time: 0.008333
 -3.6831 32.4003 -2.5511 33.9560 4.4330 -2.5060 -39.2431 -6.7934 -0.1028 5.5092 -1.8437 -5.7674 29.8521 32.3414 22.7254 -57.6296 -3.5827 -31.6078 1.4663 0.0000 20.7648 1.7386 25.2355 -4.0723 33.1476 -0.0000 26.2537 29.9343 -33.4194 -23.7765 -51.8453 11.2511 42.0623 -7.3476 -0.0000 -16.6974 -1.1671 8.0986 8.2288 32.8623 0.0000 -24.3270 -27.6265 1.1327 1.9377 -0.3627 -0.0000 -0.0000 -6.6487 -1.2513 -3.2519 4.5531 0.0000 0.0000 -26.6881 -6.1547 1.1735 -2.9078 0.0000 0.0000 -7.8272 -12.2884 11.0461 16.2651 -0.0000 -0.0000
 -3.6833 32.4008 -2.5523 33.9587 4.4296 -2.5048 -39.2328 -6.8003 -0.1035 5.4803 -1.8526 -5.7522 29.8670 32.3428 22.7174 -57.6321 -3.5826 -31.5979 1.4513 0.0000 20.7790 1.7424 25.2311 -4.0820 33.1476 -0.0000 26.2537 29.9465 -33.4267 -23.7776 -51.8408 11.2485 42.0530 -7.3338 -0.0000 -16.6523 -1.1597 8.1023 8.1737 32.8623 0.0000 -24.3270 -27.6291 1.1248 1.9393 -0.3634 0.0000 0.0000 -6.6375 -1.2453 -3.2384 4.5677 -0.0000 0.0000 -26.6933 -6.1523 1.1756 -2.9092 -0.0000 0.0000 -7.8217 -12.2692 10.9986 16.2560 -0.0000 0.0000
 -3.6829 32.4013 -2.5528 33.9616 4.4299 -2.5047 -39.2251 -6.8091 -0.1045 5.4544 -1.8743 -5.7340 29.8778 32.3462 22.7122 -57.6112 -3.5933 -31.5932 1.4302 0.0000 20.7701 1.7421 25.2261 -4.0819 33.1476 -0.0000 26.2537 29.9665 -33.4482 -23.7821 -51.8856 11.2204 42.0709 -7.3368 -0.0000 -16.6149 -1.1612 8.1525 8.1348 32.8623 0.0000 -24.3270 -27.6336 1.1304 1.9385 -0.3634 -0.0000 0.0000 -6.6261 -1.2546 -3.2451 4.5581 -0.0000 0.0000 -26.6974 -6.1542 1.1730 -2.9087 -0.0000 0.0000 -7.8177 -12.2859 11.0458 16.2821 -0.0000 -0.0000
 -3.6828 32.4015 -2.5542 33.9648 4.4241 -2.5007 -39.2139 -6.8200 -0.1032 5.4222 -1.8781 -5.7364 29.8785 32.3455 22.7005 -57.5927 -3.5962 -31.5785 1.4124 0.0000 20.7586 1.7380 25.1972 -4.0767 33.1476 -0.0000 26.2537 29.9775 -33.4675 -23.7899 -51.9099 11.2245 42.0891 -7.3482 -0.0000 -16.6155 -1.1664 8.2164 8.1084 32.8623 0.0000 -24.3270 -27.6367 1.1301 1.9372 -0.3672 0.0000 -0.0000 -6.6233 -1.2443 -3.2540 4.5588 -0.0000 0.0000 -26.6970 -6.1526 1.1732 -2.9243 -0.0000 -0.0000 -7.8097 -12.2540 11.0049 16.2686 -0.0000 0.0000
 -3.6825 32.4018 -2.5549 33.9694 4.4178 -2.4997 -39.2100 -6.8286 -0.0995 5.4010 -1.9091 -5.7164 29.8726 32.3409 22.6964 -57.5678 -3.6097 -31.5677 1.4140 0.0000 20.7314 1.7328 25.1881 -4.0659 33.1476 -0.0000 26.2537 29.9562 -33.4631 -23.8243 -51.8810 11.2162 42.1006 -7.3502 -0.0000 -16.6196 -1.1743 8.2553 8.1245 32.8623 0.0000 -24.3270 -27.6346 1.1233 1.9384 -0.3817 -0.0000 0.0000 -6.6227 -1.2417 -3.2523 4.5540 0.0000 -0.0000 -26.7002 -6.1563 1.1723 -2.9339 -0.0000 -0.0000 -7.7705 -12.2666 11.1094 16.2126 -0.0000 -0.0000
 -3.6823 32.4022 -2.5556 33.9730 4.4115 -2.4959 -39.2029 -6.8368 -0.0980 5.3767 -1.9237 -5.7141 29.8658 32.3363 22.6863 -57.5738 -3.5974 -31.5524 1.3980 0.0000 20.7333 1.7432 25.2005 -4.0884 33.1476 -0.0000 26.2537 29.9554 -33.4684 -23.8319 -51.8884 11.2114 42.0990 -7.3465 -0.0000 -16.6567 -1.1746 8.2049 8.1760 32.8623 0.0000 -24.3270 -27.6374 1.1285 1.9367 -0.3847 -0.0000 0.0000 -6.6116 -1.2263 -3.2580 4.5665 -0.0000 0.0000 -26.7026 -6.1673 1.1739 -2.9369 -0.0000 0.0000 -7.7810 -12.2375 11.0252 16.2645 0.0000 -0.0000
 -3.6813 32.4026 -2.5566 33.9769 4.4049 -2.4917 -39.1916 -6.8471 -0.0957 5.3435 -1.9177 -5.7147 29.8375 32.3392 22.6865 -57.5699 -3.5952 -31.5528 1.3979 0.0000 20.7261 1.7402 25.2105 -4.0800 33.1476 -0.0000 26.2537 29.9213 -33.4719 -23.8618 -51.9213 11.1748 42.1213 -7.3674 -0.0000 -16.6011 -1.1974 8.2933 8.2450 32.8623 0.0000 -24.3270 -27.6404 1.1447 1.9347 -0.3893 0.0000 -0.0000 -6.6133 -1.2484 -3.2669 4.5835 -0.0000 0.0000 -26.7048 -6.1807 1.1700 -2.9478 0.0000 -0.0000 -7.7744 -12.2331 11.0820 16.2819 0.0000 -0.0000
 -3.6808 32.4027 -2.5567 33.9826 4.3997 -2.4873 -39.1926 -6.8562 -0.0961 5.3352 -1.9077 -5.7140 29.8137 32.3278 22.6940 -57.5688 -3.5851 -31.5458 1.4141 0.0000 20.7480 1.7432 25.2311 -4.0838 33.1476 -0.0000 26.2537 29.9092 -33.4678 -23.8821 -51.9437 11.1396 42.1252 -7.3601 -0.0000 -16.6282 -1.1685 8.1491 8.1884 32.8623 0.0000 -24.3270 -27.6400 1.1538 1.9344 -0.4017 -0.0000 -0.0000 -6.6091 -1.2514 -3.2953 4.5879 -0.0000 -0.0000 -26.7055 -6.1832 1.1682 -2.9598 0.0000 -0.0000 -7.7696 -12.2139 11.0287 16.2747 -0.0000 -0.0000
 -3.6809 32.4031 -2.5576 33.9870 4.3902 -2.4846 -39.1852 -6.8558 -0.0937 5.3105 -1.9131 -5.7151 29.8067 32.3262 22.6927 -57.5763 -3.5794 -31.5448 1.4148 0.0000 20.7398 1.7400 25.2390 -4.0752 33.1476 -0.0000 26.2537 29.8615 -33.4594 -23.9071 -51.9251 11.1299 42.1267 -7.3769 -0.0000 -16.6743 -1.1747 8.1284 8.2516 32.8623 0.0000 -24.3270 -27.6420 1.1522 1.9353 -0.4057 -0.0000 -0.0000 -6.6015 -1.3046 -3.2915 4.6104 0.0000 0.0000 -26.7092 -6.1775 1.1694 -2.9683 -0.0000 0.0000 -7.7549 -12.2175 11.0755 16.2788 -0.0000 0.0000
 -3.6809 32.4031 -2.5585 33.9907 4.3736 -2.4776 -39.1768 -6.8609 -0.0904 5.2891 -1.9037 -5.7202 29.8016 32.3357 22.6919 -57.5754 -3.5628 -31.5459 1.4019 0.0000 20.7227 1.7500 25.2469 -4.0972 33.1476 -0.0000 26.2537 29.8499 -33.4659 -23.9272 -51.9429 11.1163 42.1504 -7.3909 -0.0000 -16.6741 -1.2009 8.2581 8.3036 32.8623 0.0000 -24.3270 -27.6391 1.1542 1.9371 -0.4199 0.0000 0.0000 -6.5973 -1.2281 -3.2842 4.5678 -0.0000 -0.0000 -26.7146 -6.1859 1.1712 -2.9719 -0.0000 0.0000 -7.7458 -12.2000 11.0771 16.2726 -0.0000 -0.0000
 -3.6809 32.4031 -2.5593 33.9959 4.3640 -2.4721 -39.1673 -6.8649 -0.0898 5.2606 -1.8710 -5.7375 29.7820 32.3412 22.6956 -57.5904 -3.5557 -31.5544 1.4204 0.0000 20.7302 1.7410 25.2647 -4.0737 33.1476 -0.0000 26.2537 29.8083 -33.4553 -23.9500 -51.9262 11.1114 42.1483 -7.4125 -0.0000 -16.6584 -1.2018 8.2664 8.3013 32.8623 0.0000 -24.3270 -27.6456 1.1578 1.9362 -0.4151 -0.0000 0.0000 -6.6078 -1.2981 -3.2862 4.6003 -0.0000 0.0000 -26.7179 -6.1812 1.1696 -2.9827 -0.0000 0.0000 -7.7377 -12.1790 11.0730 16.2582 -0.0000 -0.0000
 -3.6807 32.4031 -2.5603 34.0008 4.3545 -2.4677 -39.1577 -6.8673 -0.0874 5.2319 -1.8642 -5.7442 29.7943 32.3535 22.6892 -57.6119 -3.5420 -31.5652 1.4172 0.0000 20.7592 1.7417 25.2744 -4.0738 33.1476 -0.0000 26.2537 29.7810 -33.4550 -23.9657 -51.9068 11.1259 42.1416 -7.4362 -0.0000 -16.6511 -1.2098 8.2570 8.3654 32.8623 0.0000 -24.3270 -27.6500 1.1667 1.9346 -0.4202 0.0000 -0.0000 -6.5948 -1.2161 -3.2809 4.5580 -0.0000 0.0000 -26.7235 -6.1692 1.1690 -2.9867 -0.0000 0.0000 -7.7433 -12.1948 11.0903 16.3236 -0.0000 0.0000
 -3.6798 32.4028 -2.5612 34.0046 4.3476 -2.4608 -39.1512 -6.8727 -0.0799 5.2036 -1.9654 -5.7188 29.8205 32.3612 22.6707 -57.6406 -3.5273 -31.5717 1.4196 0.0000 20.7978 1.7501 25.2548 -4.0963 33.1476 -0.0000 26.2537 29.7929 -33.4689 -23.9841 -51.9222 11.1204 42.1462 -7.4533 -0.0000 -16.6387 -1.2210 8.3230 8.3761 32.8623 0.0000 -24.3270 -27.6536 1.1591 1.9295 -0.4192 -0.0000 -0.0000 -6.6100 -1.1954 -3.2782 4.6089 0.0000 0.0000 -26.7280 -6.1799 1.1650 -2.9937 -0.0000 0.0000 -7.7368 -12.1728 11.0947 16.3033 0.0000 -0.0000
 -3.6801 32.4027 -2.5610 34.0091 4.3420 -2.4631 -39.1430 -6.8787 -0.0734 5.1712 -1.9590 -5.7405 29.8530 32.3737 22.6550 -57.6389 -3.5348 -31.5777 1.4179 0.0000 20.7990 1.7548 25.2701 -4.1051 33.1476 -0.0000 26.2537 29.7654 -33.4593 -24.0028 -51.8651 11.1333 42.1209 -7.4454 -0.0000 -16.7017 -1.1939 8.2332 8.2805 32.8623 0.0000 -24.3270 -27.6601 1.1624 1.9329 -0.4125 -0.0000 -0.0000 -6.6070 -1.2052 -3.2365 4.5498 -0.0000 0.0000 -26.7378 -6.2182 1.1711 -2.9792 -0.0000 -0.0000 -7.7409 -12.1292 11.0744 16.2953 -0.0000 0.0000
 -3.6800 32.4024 -2.5622 34.0144 4.3374 -2.4606 -39.1308 -6.8826 -0.0701 5.1445 -1.9561 -5.7702 29.8405 32.3758 22.6619 -57.6157 -3.5377 -31.5885 1.4263 0.0000 20.8170 1.7628 25.2541 -4.1261 33.1476 -0.0000 26.2537 29.7696 -33.4676 -24.0080 -51.8494 11.1378 42.1071 -7.4472 -0.0000 -16.7113 -1.1965 8.2876 8.2450 32.8623 0.0000 -24.3270 -27.6673 1.1491 1.9329 -0.4114 -0.0000 -0.0000 -6.6071 -1.1899 -3.2407 4.5545 0.0000 -0.0000 -26.7338 -6.1881 1.1705 -3.0052 0.0000 -0.0000 -7.7327 -12.1541 11.0909 16.3088 -0.0000 0.0000
 -3.6798 32.4023 -2.5628 34.0201 4.3287 -2.4599 -39.1165 -6.8877 -0.0649 5.1013 -1.9478 -5.7796 29.8453 32.3918 22.6564 -57.6167 -3.5346 -31.5982 1.4315 0.0000 20.8198 1.7570 25.2483 -4.1133 33.1476 -0.0000 26.2537 29.7793 -33.4762 -23.9970 -51.8473 11.1368 42.0797 -7.4388 -0.0000 -16.7238 -1.1947 8.2948 8.2253 32.8623 0.0000 -24.3270 -27.6757 1.1626 1.9355 -0.4072 0.0000 0.0000 -6.6140 -1.1933 -3.2443 4.5539 0.0000 -0.0000 -26.7540 -6.2258 1.1728 -2.9768 0.0000 -0.0000 -7.7455 -12.1242 11.1316 16.3389 -0.0000 -0.0000
 -3.6799 32.4024 -2.5631 34.0252 4.3267 -2.4582 -39.1039 -6.8912 -0.0621 5.0640 -1.9360 -5.7920 29.8580 32.3976 22.6459 -57.6251 -3.5304 -31.5993 1.4383 0.0000 20.8357 1.7706 25.2183 -4.1499 33.1476 -0.0000 26.2537 29.7704 -33.4879 -23.9960 -51.8261 11.1392 42.0569 -7.4346 -0.0000 -16.7593 -1.1967 8.3580 8.1780 32.8623 0.0000 -24.3270 -27.6813 1.1498 1.9354 -0.4050 0.0000 -0.0000 -6.6230 -1.1726 -3.2619 4.5826 -0.0000 0.0000 -26.7610 -6.2340 1.1720 -2.9751 0.0000 0.0000 -7.7421 -12.1065 11.1107 16.3175 0.0000 -0.0000
 -3.6799 32.4023 -2.5649 34.0406 4.3178 -2.4555 -39.0968 -6.8998 -0.0561 5.0212 -1.9205 -5.8094 29.8903 32.4216 22.6154 -57.6637 -3.5182 -31.6006 1.4446 0.0000 20.8520 1.7669 25.2160 -4.1414 33.1476 -0.0000 26.2537 29.7983 -33.4985 -23.9805 -51.8033 11.1583 42.0058 -7.4033 -0.0000 -16.8187 -1.1982 8.2920 8.2518 32.8623 0.0000 -24.3270 -27.7034 1.1502 1.9360 -0.3974 -0.0000 -0.0000 -6.6231 -1.1693 -3.2565 4.5705 -0.0000 0.0000 -26.7839 -6.2165 1.1710 -2.9710 0.0000 0.0000 -7.7333 -12.1193 11.1868 16.2887 0.0000 -0.0000
 -3.6800 32.4022 -2.5671 34.0600 4.3262 -2.4594 -39.0912 -6.9003 -0.0566 4.9782 -1.9043 -5.8189 29.9030 32.4259 22.6040 -57.6672 -3.5273 -31.6024 1.4403 0.0000 20.8362 1.7725 25.2178 -4.1543 33.1476 -0.0000 26.2537 29.8053 -33.5281 -23.9542 -51.8219 11.1551 41.9795 -7.4089 -0.0000 -16.7755 -1.2022 8.3981 8.1767 32.8623 0.0000 -24.3270 -27.7329 1.1175 1.9327 -0.3823 0.0000 0.0000 -6.6254 -1.1522 -3.2429 4.5812 0.0000 -0.0000 -26.7956 -6.1980 1.1689 -2.9907 -0.0000 0.0000 -7.7411 -12.1398 11.1190 16.3376 0.0000 -0.0000
